<svg width="60" height="60" viewBox="0 0 60 60" fill="none" xmlns="http://www.w3.org/2000/svg">
<g clip-path="url(#clip0_1261_13049)">
<path d="M30 60.5C46.5685 60.5 60 47.0685 60 30.5C60 13.9315 46.5685 0.5 30 0.5C13.4315 0.5 0 13.9315 0 30.5C0 47.0685 13.4315 60.5 30 60.5Z" fill="white"/>
<path d="M60 30.5002C60 29.4039 59.9395 28.322 59.8249 27.2561L46.9563 14.3875L44.7248 20.1946L35.079 10.5488L7.46094 41.5159L26.2075 60.2625C27.4496 60.4191 28.7154 60.5002 30 60.5002C46.5685 60.5002 60 47.0688 60 30.5002Z" fill="#F8F8F8"/>
<path d="M43.7891 41.5156H52.539L50.6595 37.3755L52.539 33.0391H43.7891V41.5156Z" fill="#303F9E"/>
<path d="M16.2109 41.5156H7.46094L9.34039 37.3755L7.46094 33.0391H16.2109V41.5156Z" fill="#304FFD"/>
<path d="M35.0788 10.5488H24.9208C23.2138 13.287 20.1767 15.1102 16.7124 15.1102C15.4133 15.1102 14.175 14.8523 13.0435 14.3877V36.6421C13.0435 39.6122 14.4722 42.4009 16.8828 44.1358L29.9998 53.5767L43.1168 44.1358C45.5274 42.4009 46.9561 39.6122 46.9561 36.6421V14.3875C45.8246 14.8522 44.5862 15.1101 43.2872 15.1101C39.8229 15.1101 36.7859 13.2869 35.0788 10.5488Z" fill="#FFDE1F"/>
<path d="M30.0003 53.5763L43.1173 44.1354C45.5278 42.4005 46.9566 39.6118 46.9566 36.6418V14.3872C45.825 14.8518 44.5867 15.1097 43.2877 15.1097C39.8234 15.1097 36.7863 13.2865 35.0793 10.5483H29.9946L30.0003 53.5763Z" fill="#F9C41E"/>
<path d="M33.9905 15.1592H26.0095C24.6683 17.3105 22.2821 18.743 19.5603 18.743C18.5397 18.743 17.5667 18.5404 16.6777 18.1754V35.6604C16.6777 37.994 17.8003 40.1849 19.6943 41.548L30.0001 48.9655L40.3059 41.5479C42.1999 40.1848 43.3224 37.9938 43.3224 35.6603V18.1752C42.4333 18.5403 41.4604 18.7429 40.4398 18.7429C37.7179 18.7429 35.3318 17.3105 33.9905 15.1592Z" fill="#F9C41E"/>
<path d="M30.0001 48.9657L40.306 41.548C42.1999 40.1849 43.3225 37.9939 43.3225 35.6604V18.1754C42.4334 18.5404 41.4605 18.743 40.4399 18.743C37.718 18.743 35.3318 17.3105 33.9907 15.1592H29.9946L30.0001 48.9657Z" fill="#FE9A35"/>
<path d="M48.9444 35.0703H11.0542V43.625H48.9444V35.0703Z" fill="#536DFD"/>
<path d="M48.9453 35.0703H29.998L29.999 43.625H48.9453V35.0703Z" fill="#304FFD"/>
<path d="M11.0547 35.0704L13.0436 33.0391L13.0437 35.0704H11.0547Z" fill="#303F9E"/>
<path d="M48.9456 35.0704L46.9567 33.0391L46.9565 35.0704H48.9456Z" fill="#1A237E"/>
</g>
<defs>
<clipPath id="clip0_1261_13049">
<rect width="60" height="60" fill="white" transform="translate(0 0.5)"/>
</clipPath>
</defs>
</svg>
